CddbId:36128b17:[182, 11027, 21970, 34940, 51122, 100690, 138192, 145342, 151972, 158557, 163700, 183647, 202032, 214525, 241562, 252222, 262462, 280525, 300247, 315285, 323142, 330402, 343585]:356175:74:36128b17 23 182 11027 21970 34940 51122 100690 138192 145342 151972 158557 163700 183647 202032 214525 241562 252222 262462 280525 300247 315285 323142 330402 343585 4749: 23 0 0 0 0 0 0 0 0 0 0 0 0 0 0 0 0 0 0 0 0 0 0 0 4749
num_tracks: 23
offsets: [182, 11027, 21970, 34940, 51122, 100690, 138192, 145342, 151972, 158557, 163700, 183647, 202032, 214525, 241562, 252222, 262462, 280525, 300247, 315285, 323142, 330402, 343585]
extents: [0, 0, 0, 0, 0, 0, 0, 0, 0, 0, 0, 0, 0, 0, 0, 0, 0, 0, 0, 0, 0, 0, 0]
total_length: 4749
cddb: [907184919, 23, 182, 11027, 21970, 34940, 51122, 100690, 138192, 145342, 151972, 158557, 163700, 183647, 202032, 214525, 241562, 252222, 262462, 280525, 300247, 315285, 323142, 330402, 343585, 4749]
musicbrainz: ('23 182 11027 21970 34940 51122 100690 138192 145342 151972 158557 163700 183647 202032 214525 241562 252222 262462 280525 300247 315285 323142 330402 343585 356182', 'xGEGCWs.78iwzQ6RFexQb0TpwtI-')

CD record:
Device type    : Removable CD-ROM
Version        : 0
Response Format: 2
Capabilities   : 
Vendor_info    : 'FREECOM_'
Identification : 'DVD+/-RW16H4    '
Revision       : 'FR00'
Device seems to be: Generic mmc2 DVD-R/DVD-RW.
Using generic SCSI-3/mmc   CD-R/CD-RW driver (mmc_cdr).
Driver flags   : MMC-3 SWABAUDIO BURNFREE 
Supported modes: TAO PACKET SAO SAO/R96R RAW/R96R
first: 1 last 23
track:   1 lba:        32 (      128) 00:02:32 adr: 1 control: 1 mode: -1
track:   2 lba:     10877 (    43508) 02:27:02 adr: 1 control: 1 mode: -1
track:   3 lba:     21820 (    87280) 04:52:70 adr: 1 control: 1 mode: -1
track:   4 lba:     34790 (   139160) 07:45:65 adr: 1 control: 1 mode: -1
track:   5 lba:     50972 (   203888) 11:21:47 adr: 1 control: 1 mode: -1
track:   6 lba:    100540 (   402160) 22:22:40 adr: 1 control: 0 mode: -1
track:   7 lba:    138042 (   552168) 30:42:42 adr: 1 control: 0 mode: -1
track:   8 lba:    145192 (   580768) 32:17:67 adr: 1 control: 0 mode: -1
track:   9 lba:    151822 (   607288) 33:46:22 adr: 1 control: 0 mode: -1
track:  10 lba:    158407 (   633628) 35:14:07 adr: 1 control: 0 mode: -1
track:  11 lba:    163550 (   654200) 36:22:50 adr: 1 control: 0 mode: -1
track:  12 lba:    183497 (   733988) 40:48:47 adr: 1 control: 1 mode: -1
track:  13 lba:    201882 (   807528) 44:53:57 adr: 1 control: 1 mode: -1
track:  14 lba:    214375 (   857500) 47:40:25 adr: 1 control: 1 mode: -1
track:  15 lba:    241412 (   965648) 53:40:62 adr: 1 control: 0 mode: -1
track:  16 lba:    252072 (  1008288) 56:02:72 adr: 1 control: 0 mode: -1
track:  17 lba:    262312 (  1049248) 58:19:37 adr: 1 control: 0 mode: -1
track:  18 lba:    280375 (  1121500) 62:20:25 adr: 1 control: 0 mode: -1
track:  19 lba:    300097 (  1200388) 66:43:22 adr: 1 control: 0 mode: -1
track:  20 lba:    315135 (  1260540) 70:03:60 adr: 1 control: 0 mode: -1
track:  21 lba:    322992 (  1291968) 71:48:42 adr: 1 control: 0 mode: -1
track:  22 lba:    330252 (  1321008) 73:25:27 adr: 1 control: 0 mode: -1
track:  23 lba:    343435 (  1373740) 76:21:10 adr: 1 control: 0 mode: -1
track:lout lba:    356032 (  1424128) 79:09:07 adr: 1 control: 0 mode: -1
